<?xml version="1.0" encoding="UTF-8"?>
<svg version="1.1" xmlns="http://www.w3.org/2000/svg" width="1400" height="1400">
<path d="M0 0 C1.19387329 -0.00281982 2.38774658 -0.00563965 3.61779785 -0.00854492 C4.9546968 -0.0065997 6.29159561 -0.00455147 7.62849426 -0.00241089 C9.02869207 -0.00376556 10.42888953 -0.00554587 11.8290863 -0.00772095 C15.66105183 -0.01230965 19.49299062 -0.01049407 23.32495666 -0.00734186 C27.38498361 -0.00479939 31.44500835 -0.00716345 35.5050354 -0.00872803 C42.38131615 -0.01055519 49.25758623 -0.00814059 56.13386536 -0.00338745 C63.93026793 0.00194175 71.7266439 0.00038024 79.52304572 -0.00521386 C86.29752925 -0.00987011 93.0720051 -0.01033355 99.84648973 -0.00777519 C103.85337488 -0.00626379 107.86024796 -0.00586532 111.86713219 -0.00931168 C112.92607662 -0.00980953 112.92607662 -0.00980953 114.00641387 -0.01031744 C115.51153608 -0.01135391 117.01665822 -0.01334974 118.52177702 -0.01671223 C122.31809201 -0.02081056 126.10994938 0.0019121 129.90519124 0.0953778 C138.18458863 0.27022226 146.26895965 0.12538621 154.51363569 -0.71561053 C176.06989354 -2.83562181 196.33191589 -3.49051532 214.19811697 10.20114943 C223.79364406 18.07934006 232.53227485 26.89289515 241.13980098 35.81997837 C246.28759844 41.14742014 251.58957418 46.31166517 256.89733398 51.47889919 C267.28471574 61.60113853 277.51907833 71.86741275 287.69190653 82.20477871 C296.59361184 91.24966139 305.54464556 100.2419885 314.54636192 109.18735123 C315.14695205 109.78432832 315.74754218 110.38130542 316.36633202 110.99637273 C318.80529809 113.42057949 321.24446479 115.84458409 323.68395203 118.2682664 C346.49453095 140.93286568 369.14995412 163.74700101 391.7369876 186.63414514 C411.74074845 206.90182229 431.87299948 227.03274656 452.12214661 247.0552063 C474.95138916 269.62985232 497.69697391 292.28367196 520.3143155 315.07077229 C522.73174258 317.50593166 525.14934982 319.94091207 527.56702232 322.37582779 C528.16209749 322.97529633 528.75717266 323.57476486 529.3702804 324.19239911 C538.30043611 333.18577733 547.28942241 342.11724179 556.30994606 351.01989365 C566.58155054 361.15807414 576.75703045 371.38328273 586.82081459 381.72795556 C591.94710705 386.99282637 597.10366785 392.21288443 602.38243484 397.32528305 C637.51189576 431.4178197 637.51189576 431.4178197 638.49752682 457.49779332 C638.54291115 465.87630797 637.92161977 474.15509133 637.02767247 482.47990716 C636.22859617 490.25099552 636.45968859 497.97935306 636.71815366 505.77430451 C636.82964591 509.61763829 636.85177659 513.46176759 636.88037109 517.30645752 C636.89413235 518.85413832 636.9079827 520.40181833 636.92195702 521.94949722 C637.00560367 532.12546723 637.06476162 542.30164092 637.11082745 552.47784615 C637.15179509 561.32786754 637.21300188 570.17690503 637.31990051 579.02639771 C637.4150174 586.90238621 637.47498926 594.7777072 637.49212962 602.65426624 C637.50222154 606.77990509 637.52896087 610.90377142 637.59844017 615.02887344 C637.6625526 618.86990369 637.67922568 622.70826394 637.65994453 626.54975319 C637.66109268 627.94906559 637.6791767 629.34849038 637.71608734 630.74731636 C637.76408784 632.66543714 637.74329986 634.58490103 637.71984863 636.503479 C637.7317273 638.10621013 637.7317273 638.10621013 637.74384594 639.74131966 C636.0848101 644.2958216 633.41448329 646.206294 629.75475687 649.30299103 C625.85991564 652.62549751 622.2712426 656.24162381 618.65668011 659.86341667 C617.92393218 660.59541023 617.19118424 661.32740379 616.43623183 662.08157897 C614.02432866 664.4934718 611.61568816 666.90859605 609.20703125 669.32373047 C607.44914138 671.08261732 605.69102737 672.84128019 603.93270952 674.59973919 C600.12073681 678.41301081 596.31031154 682.22781864 592.50126076 686.04400826 C586.83719234 691.71866188 581.17019771 697.39038654 575.50257232 703.06148734 C565.9658272 712.60420417 556.43127382 722.14910789 546.89783287 731.69512558 C533.28170711 745.3291088 519.66134448 758.95885452 506.04011278 772.58773632 C500.57099137 778.05996657 495.10200665 783.53233342 489.63302326 789.00470161 C489.02551162 789.61258803 488.41799997 790.22047444 487.79207889 790.84678166 C473.34409716 805.30372836 458.89746509 819.76202347 444.45124817 834.22073364 C443.81942268 834.85310353 443.1875972 835.48547342 442.53662548 836.13700604 C427.78524403 850.90112057 413.03450574 865.6658773 398.28486633 880.43173218 C397.64982787 881.06746783 397.01478941 881.70320348 396.36050736 882.35820384 C393.15802764 885.56420142 389.9555524 888.77020347 386.75307737 891.97620572 C386.12010282 892.60987705 385.48712828 893.24354837 384.83497269 893.89642186 C383.55736657 895.17543473 382.27976121 896.45444836 381.00215661 897.73346274 C359.90707219 918.8517826 338.80860192 939.96671503 317.70638653 961.07790942 C314.72852573 964.05704683 311.75071101 967.0362303 308.77292824 970.01544571 C308.1868914 970.60176389 307.60085457 971.18808207 306.99705904 971.79216747 C297.55782815 981.23615891 288.12230633 990.68384781 278.68825139 1000.13300946 C269.215992 1009.62032185 259.74022123 1019.10411494 250.26078799 1028.58425955 C244.6263429 1034.21935951 238.99474235 1039.85726858 233.36711372 1045.49917614 C229.17088356 1049.70544601 224.96948058 1053.90652141 220.76601104 1058.10555746 C219.06191874 1059.80949784 217.35953821 1061.51515212 215.65900304 1063.22264253 C213.35566107 1065.53492126 211.04629466 1067.8410082 208.73526287 1070.14559746 C207.73648297 1071.15268717 207.73648297 1071.15268717 206.71752569 1072.18012214 C202.12700291 1076.73915595 198.31729696 1080.50623109 191.5276947 1080.49447632 C190.54655732 1080.50004956 189.56541994 1080.50562281 188.55455112 1080.51136494 C186.95327822 1080.49753663 186.95327822 1080.49753663 185.31965637 1080.48342896 C184.18324424 1080.48543651 183.0468321 1080.48744406 181.87598324 1080.48951244 C178.08996046 1080.49244311 174.30435964 1080.47384814 170.51838684 1080.45510864 C167.84637708 1080.45259291 165.17438899 1080.4512254 162.50238037 1080.45121765 C156.09100339 1080.44830599 149.67978244 1080.42895453 143.26846176 1080.40283936 C138.12146006 1080.38198643 132.97446782 1080.36625184 127.82743835 1080.35412598 C112.62957943 1080.31778473 97.43189679 1080.26516774 82.23417675 1080.19048512 C73.37172789 1080.14693682 64.50934718 1080.11350644 55.64680481 1080.09622192 C47.0906142 1080.07923285 38.53495305 1080.03872254 29.97901917 1079.97036743 C27.06249834 1079.94763705 24.14623593 1079.93543452 21.22962952 1079.93252563 C17.29288433 1079.92767669 13.357182 1079.88354466 9.42073059 1079.83401489 C8.32051071 1079.8379274 7.22029083 1079.8418399 6.08673096 1079.84587097 C-6.48051485 1079.6023025 -13.03896319 1073.17364916 -21.52848816 1064.51370239 C-22.45358185 1063.58532059 -23.37867554 1062.65693878 -24.33180237 1061.70042419 C-26.27915677 1059.74547968 -28.21991925 1057.78431659 -30.15544128 1055.81765747 C-32.61552603 1053.31803002 -35.08622553 1050.82925863 -37.56130409 1048.34448528 C-39.9497066 1045.94602743 -42.33299262 1043.54253345 -44.71598816 1041.13870239 C-45.59219818 1040.25510544 -46.4684082 1039.37150848 -47.37117004 1038.46113586 C-48.20248444 1037.61698624 -49.03379883 1036.77283661 -49.89030457 1035.90310669 C-50.61150482 1035.17206223 -51.33270508 1034.44101776 -52.07575989 1033.68782043 C-53.88673869 1031.76641889 -55.58965093 1029.83242635 -57.29379177 1027.82135582 C-62.90017643 1021.40680514 -69.00684712 1015.47167774 -75.03323364 1009.45619202 C-76.4197178 1008.06855468 -77.80598404 1006.68069958 -79.19205195 1005.29264647 C-82.98947501 1001.49105726 -86.79000047 997.69258305 -90.59105718 993.89462745 C-94.69448953 989.79346004 -98.79504039 985.68941328 -102.89596558 981.58573914 C-110.92541239 973.55184737 -118.95755838 965.52065945 -126.99067753 957.49043982 C-133.51973952 950.96363686 -140.04782403 944.43585771 -146.57521248 937.90738106 C-147.96910722 936.51325646 -147.96910722 936.51325646 -149.39116146 935.09096773 C-150.80569727 933.67619236 -152.22023306 932.26141697 -153.63476479 930.84663752 C-171.30266128 913.17568364 -188.97346983 895.50764437 -206.64558732 877.84091188 C-222.33808978 862.15315484 -238.02800518 846.46281481 -253.71574402 830.77029419 C-271.35066131 813.13001954 -288.98719661 795.49136515 -306.62633711 777.85531336 C-308.50750119 775.97446782 -310.38866319 774.0936202 -312.26982307 772.21277046 C-313.19537351 771.2873743 -314.12092395 770.36197814 -315.07452137 769.40853966 C-321.59450794 762.88941627 -328.11333391 756.36913371 -334.63171196 749.84840202 C-342.57621163 741.90109683 -350.52249244 733.95557773 -358.47105687 726.01233786 C-362.5259113 721.96011025 -366.57996444 717.90708959 -370.6318512 713.85189438 C-374.34240369 710.138358 -378.05526453 706.42714581 -381.76996464 702.71775848 C-383.11194343 701.37689494 -384.45308406 700.03519189 -385.79329049 698.69255685 C-394.58492231 689.85065559 -394.58492231 689.85065559 -403.86119562 681.52519232 C-407.01165452 678.81980127 -409.93103808 675.8683447 -412.87614441 672.94338989 C-413.54104385 672.28419052 -414.2059433 671.62499115 -414.89099121 670.94581604 C-416.28300528 669.56316967 -417.6736324 668.17912563 -419.06291199 666.79373169 C-421.17522982 664.69117165 -423.29799178 662.59953358 -425.42106628 660.50784302 C-426.78175037 659.1536862 -428.14179831 657.79888981 -429.50114441 656.44338989 C-430.1283287 655.8285524 -430.755513 655.2137149 -431.40170288 654.58024597 C-438.80891133 647.13564163 -442.61592896 640.73394452 -442.69474792 630.11428833 C-442.70463336 629.28919895 -442.7145188 628.46410957 -442.72470379 627.61401749 C-442.75654474 624.84232752 -442.78125715 622.0706219 -442.80583191 619.29885864 C-442.82672945 617.31928165 -442.84795703 615.33970811 -442.86949158 613.36013794 C-442.93798288 606.86581718 -442.99536968 600.37141755 -443.05192566 593.87698364 C-443.07194868 591.64492774 -443.0919988 589.41287207 -443.11207581 587.18081665 C-443.23631933 573.19536312 -443.34234654 559.20981829 -443.43937683 545.22415161 C-443.47207254 540.52524144 -443.50675615 535.8263531 -443.54338074 531.12747192 C-443.64683659 517.80072802 -443.72807903 504.47419052 -443.77552795 491.14712524 C-443.79105982 486.97506495 -443.81587707 482.80321629 -443.84858704 478.6312561 C-443.88652859 473.72240743 -443.90501246 468.81386721 -443.90843964 463.90487671 C-443.91288579 462.11057492 -443.92411643 460.31627468 -443.94275665 458.52206421 C-443.96706106 456.07065972 -443.96629665 453.62046344 -443.95939636 451.16897583 C-443.9786157 450.11496141 -443.9786157 450.11496141 -443.9982233 449.03965378 C-443.85076331 434.91056438 -430.74320497 425.22736021 -421.51652527 416.02468872 C-420.24635811 414.75189308 -420.24635811 414.75189308 -418.95053101 413.4533844 C-416.65907472 411.15831809 -414.36543147 408.86546831 -412.07057261 406.57380509 C-409.65183937 404.15763312 -407.23558034 401.73898867 -404.81890869 399.320755 C-400.76515501 395.2651912 -396.70931839 391.2117195 -392.65226746 387.15945435 C-387.98050884 382.49314347 -383.31237309 377.82323154 -378.64608759 373.15144807 C-374.61624185 369.11704686 -370.58442891 365.08461937 -366.55100065 361.05379981 C-364.15210829 358.65645592 -361.75387152 356.25846666 -359.35741997 353.85868263 C-356.68500959 351.1837195 -354.00939181 348.51200513 -351.33293152 345.84109497 C-350.55296814 345.05910736 -349.77300476 344.27711975 -348.96940613 343.47143555 C-348.2309697 342.73581894 -347.49253326 342.00020233 -346.73171997 341.24229431 C-345.78690215 340.29804203 -345.78690215 340.29804203 -344.82299709 339.33471394 C-342.93533306 337.54884486 -341.01831817 335.86585682 -339.04311562 334.1806736 C-332.8717166 328.80562893 -327.16632733 322.94184064 -321.38809204 317.15263367 C-320.06232664 315.82802158 -318.73634351 314.50362738 -317.41016251 313.17943138 C-313.77959767 309.55303096 -310.15214601 305.92353056 -306.52521431 302.29349697 C-302.60809803 298.37411504 -298.68810157 294.45761554 -294.76847839 290.54074097 C-287.09553899 282.87224576 -279.42530262 275.20105241 -271.75603514 267.52888507 C-265.52242458 261.29301519 -259.28783751 255.05812319 -253.05255318 248.82392693 C-251.72087421 247.49247781 -251.72087421 247.49247781 -250.36229264 246.13413073 C-248.55871026 244.33086808 -246.75512564 242.52760768 -244.95153881 240.72434949 C-228.5254143 224.30099457 -212.10211156 207.87482074 -195.6799927 191.44746078 C-180.69712555 176.45984823 -165.71167551 161.47482283 -150.7240448 146.49197388 C-133.87483567 129.6481225 -117.02725656 112.80264343 -100.18226105 95.95457786 C-98.38567025 94.15766852 -96.58907737 92.36076127 -94.79248238 90.56385612 C-93.90854787 89.67976734 -93.02461336 88.79567856 -92.11389295 87.8847992 C-85.88781945 81.65786264 -79.66058706 75.43208647 -73.4329052 69.2067585 C-65.84242832 61.61908757 -58.25373853 54.02963473 -50.66732674 46.4378993 C-46.79737276 42.56531908 -42.926627 38.69353927 -39.05370522 34.82392693 C-35.50670615 31.27991296 -31.96203386 27.73358882 -28.4191835 24.18542766 C-27.13888458 22.90401401 -25.85774721 21.62343738 -24.57567649 20.34379644 C-18.33406659 14.1131067 -12.18809387 7.86689289 -6.48942566 1.12698364 C-4.74949318 -0.61294884 -2.36738873 0.0008562 0 0 Z M14.67247105 81.45613575 C14.03039976 82.09179408 13.38832847 82.72745242 12.72680047 83.38237312 C10.58125802 85.51133436 8.45019854 87.65421672 6.31881714 89.79734802 C4.76666647 91.3434565 3.21364912 92.88869531 1.65984148 94.43313855 C-2.60478959 98.67718215 -6.85684375 102.93363437 -11.10691273 107.19225395 C-15.69342835 111.78369885 -20.29139641 116.36365051 -24.88786316 120.94512939 C-33.88927298 129.9201825 -42.87884502 138.90702004 -51.86473834 147.8976051 C-59.16584041 155.20237285 -66.47052614 162.5035394 -73.77775764 169.80217552 C-74.82764553 170.85085861 -75.87753222 171.8995429 -76.92741771 172.94822839 C-78.50948025 174.52847642 -80.09154421 176.10872304 -81.67361592 177.68896189 C-96.38012478 192.37861449 -111.08254013 207.07235399 -125.77645016 221.77460957 C-126.60717904 222.60580757 -126.60717904 222.60580757 -127.45469032 223.45379746 C-130.26165371 226.26237242 -133.0685771 229.07098736 -135.87548452 231.87961826 C-136.43294698 232.4374229 -136.99040944 232.99522753 -137.5647647 233.56993534 C-138.69208687 234.69795082 -139.81940717 235.82596818 -140.94672559 236.9539874 C-158.49751699 254.51549906 -176.06156051 272.06365821 -193.63615417 289.60134888 C-213.38011989 309.30390488 -233.11409067 329.01639364 -252.83334166 348.74368733 C-254.93479955 350.84593593 -257.03629126 352.94815073 -259.13780403 355.05034447 C-259.91396704 355.82677967 -259.91396704 355.82677967 -260.7058101 356.61890043 C-268.52393946 364.43936365 -276.34986067 372.25197228 -284.17974663 380.06066322 C-293.08005332 388.93690194 -301.96957035 397.82378199 -310.84570157 406.7241985 C-315.37697468 411.26729005 -319.91299887 415.80535968 -324.4621067 420.33059883 C-328.62283487 424.46974841 -332.76957397 428.62238779 -336.90539999 432.78641548 C-338.40732616 434.29367401 -339.9143831 435.79584006 -341.42691337 437.29245714 C-343.47611521 439.32158147 -345.50610362 441.36816087 -347.53221035 443.42030811 C-348.1289261 444.00240517 -348.72564184 444.58450222 -349.34043989 445.18423858 C-353.01360612 448.95651185 -354.43567174 451.64340431 -354.48942566 457.12698364 C-353.02214116 459.77272758 -353.02214116 459.77272758 -350.64982605 461.95828247 C-349.81524872 462.81201447 -348.98067139 463.66574646 -348.12080383 464.54534912 C-347.25244904 465.39728851 -346.38409424 466.24922791 -345.48942566 467.12698364 C-343.93656586 468.72288806 -342.38374951 470.31883474 -340.83097839 471.91482544 C-339.19766619 473.554619 -337.56158379 475.19165706 -335.92301941 476.82620239 C-335.04468948 477.70548904 -334.16635956 478.5847757 -333.26141357 479.4907074 C-331.41978121 481.33301502 -329.5769065 483.17408152 -327.73283386 485.01394653 C-324.92723781 487.81417209 -322.12703909 490.61971536 -319.32731628 493.42581177 C-317.52620462 495.22626278 -315.72478287 497.02640365 -313.92301941 498.82620239 C-313.09571823 499.6555278 -312.26841705 500.48485321 -311.41604614 501.33930969 C-310.62484879 502.12735489 -309.83365143 502.91540009 -309.01847839 503.72732544 C-307.9933036 504.75130684 -307.9933036 504.75130684 -306.94741821 505.79597473 C-304.89912043 507.73845433 -302.8155623 509.59074757 -300.68074036 511.43566895 C-296.58743895 514.9964669 -292.7285542 518.74657576 -288.89933777 522.587677 C-288.18764938 523.29761307 -287.475961 524.00754913 -286.7427063 524.73899841 C-284.41489012 527.06245033 -282.09070769 529.38949727 -279.76676941 531.71682739 C-278.13602029 533.34690191 -276.50512283 534.97682805 -274.87408447 536.60661316 C-271.46583582 540.01339219 -268.05939033 543.42196122 -264.65422058 546.83181763 C-260.30460343 551.18713159 -255.95051183 555.53794025 -251.59505367 559.88741207 C-248.22937615 563.24946413 -244.86609874 566.61390909 -241.50352669 569.97906685 C-239.89960034 571.58365698 -238.29493997 573.18751375 -236.68951225 574.79060173 C-234.44060934 577.03694542 -232.19497005 579.2865038 -229.95011902 581.53689575 C-229.29589966 582.18909088 -228.6416803 582.84128601 -227.96763611 583.51324463 C-224.1904126 587.30762772 -220.6173697 591.2227209 -217.11670589 595.27301693 C-214.8856378 597.81488151 -212.53009438 600.21351458 -210.14006042 602.60574341 C-209.65445648 603.09309967 -209.16885254 603.58045593 -208.66853333 604.08258057 C-207.09177304 605.66367634 -205.51146131 607.24116284 -203.93083191 608.81838989 C-202.81642348 609.93347375 -201.70216337 611.04870587 -200.58804321 612.16407776 C-198.26406545 614.48952126 -195.93831102 616.81316875 -193.61125183 619.13552856 C-190.64822115 622.09286268 -187.68970396 625.05466492 -184.73251438 628.01783848 C-182.43589934 630.31808962 -180.13688 632.61592595 -177.8371563 634.91306877 C-176.7461276 636.00343661 -175.65582389 637.09453044 -174.56630135 638.18640327 C-173.03602208 639.71925963 -171.50250902 641.24881157 -169.96818542 642.77761841 C-168.66748863 644.07712181 -168.66748863 644.07712181 -167.34051514 645.40287781 C-165.13753302 647.5077421 -162.91254455 649.51555949 -160.60990906 651.50650024 C-156.60354965 654.98507393 -152.82759308 658.6474562 -149.08293152 662.40408325 C-148.39075027 663.09451218 -147.69856903 663.7849411 -146.9854126 664.49629211 C-144.72252834 666.75481386 -142.46327633 669.01692799 -140.20426941 671.27932739 C-138.61836076 672.8645614 -137.03230377 674.44964701 -135.44610596 676.03459167 C-132.13201425 679.34721399 -128.81972527 682.6616255 -125.50871277 685.97732544 C-121.28016378 690.21157123 -117.04714072 694.44131122 -112.81275082 698.66971493 C-109.53971921 701.93912042 -106.26908863 705.2109195 -102.99916267 708.48343086 C-101.43989362 710.04336351 -99.87989104 711.60256332 -98.31912041 713.16099358 C-96.13248275 715.34507093 -93.9491112 717.53236413 -91.76652527 719.7204895 C-91.13100739 720.35398315 -90.4954895 720.98747681 -89.8407135 721.64016724 C-86.79732211 724.69776976 -83.86526096 727.8041769 -81.04602051 731.07038879 C-77.31598579 735.38298766 -73.34295081 739.41408292 -69.30680847 743.43899536 C-68.52056595 744.2269902 -67.73432343 745.01498505 -66.92425537 745.82685852 C-64.34951384 748.40596762 -61.77117217 750.98144173 -59.19255066 753.55667114 C-57.39355604 755.35633992 -55.59470985 757.15615708 -53.79600525 758.95611572 C-50.03869632 762.71489442 -46.27964417 766.47191759 -42.51921082 770.22756958 C-38.17457725 774.56674267 -33.83358442 778.90953309 -29.49442601 783.25418079 C-25.30796501 787.44572501 -21.11869842 791.63445637 -16.92823029 795.82199478 C-15.14924933 797.60030807 -13.37101253 799.37936611 -11.59352875 801.15917587 C-9.11624866 803.63898784 -6.63579903 806.11558476 -4.15446472 808.59133911 C-3.41883804 809.32899002 -2.68321136 810.06664093 -1.92529297 810.8266449 C-0.91196144 811.83574669 -0.91196144 811.83574669 0.12184143 812.86523438 C0.70730618 813.45032209 1.29277092 814.03540981 1.89597702 814.63822746 C4.13285543 816.70076437 5.88454532 818.02973642 8.92463684 818.50198364 C12.39556952 817.99864597 13.50810027 816.66753355 15.88557434 814.12698364 C17.06506653 812.88368286 17.06506653 812.88368286 18.26838684 811.61526489 C20.13645593 809.54216383 21.95811336 807.44425719 23.76057434 805.31448364 C25.95737425 802.72205152 28.27215291 800.39802375 30.79963684 798.13479614 C31.38841614 797.60732788 31.97719543 797.07985962 32.58381653 796.53640747 C33.76530519 795.4892371 34.95584623 794.45217326 36.15608215 793.42654419 C38.46423946 791.38500011 40.3149855 789.49447199 41.76838684 786.76370239 C41.07601457 779.68262237 33.04097403 773.3729578 28.20588684 768.59182739 C27.52307648 767.90947525 26.84026611 767.22712311 26.13676453 766.52409363 C24.70205527 765.09238466 23.26493744 763.66308557 21.82551575 762.2361145 C19.64314438 760.07199039 17.46887273 757.89998071 15.29573059 755.72659302 C13.89125285 754.32703249 12.48631983 752.92792866 11.08088684 751.52932739 C10.12111435 750.57122414 10.12111435 750.57122414 9.14195251 749.59376526 C6.17274347 746.65507548 3.17269204 743.80951147 -0.01204109 741.10509014 C-5.54657252 736.27988731 -10.69316022 731.0650861 -15.87806702 725.87205505 C-17.01765757 724.73433535 -18.15746343 723.59683128 -19.29746449 722.4595229 C-22.41320708 719.34987016 -25.52584696 716.23712819 -28.63795471 713.12383831 C-32.00079608 709.76079224 -35.36650059 706.40061356 -38.73181152 703.04003906 C-45.31629135 696.46384914 -51.89800604 689.88489857 -58.47862129 683.30484167 C-63.8252417 677.95869688 -69.17265208 672.61334353 -74.52061844 667.26854515 C-89.68333069 652.11463224 -104.84395188 636.95863181 -120.00188981 621.79994331 C-120.81826492 620.98352824 -121.63464003 620.16711317 -122.47575378 619.32595825 C-123.29312421 618.50854694 -124.11049464 617.69113563 -124.95263387 616.84895428 C-138.21924217 603.58193894 -151.49083993 590.31992721 -164.76469134 577.06015906 C-178.39441674 563.44478064 -192.02042733 549.8256943 -205.64254868 536.20270795 C-213.29054258 528.55438166 -220.94007804 520.9076118 -228.59360886 513.26482582 C-235.10460908 506.76290815 -241.6121652 500.257568 -248.11522107 493.74770419 C-251.43443909 490.42521057 -254.75526975 487.10437113 -258.08044243 483.78783607 C-261.12169178 480.75440603 -264.15832478 477.71643443 -267.1912811 474.67471328 C-268.29160926 473.57284008 -269.39364446 472.47266847 -270.49751268 471.37434176 C-271.99328782 469.88558193 -273.4828157 468.39084049 -274.97089958 466.89439869 C-275.80118829 466.06432735 -276.63147699 465.23425602 -277.48692596 464.379031 C-280.26861735 461.25069058 -281.34834217 459.32884177 -281.83829784 455.15502101 C-281.41118572 451.44789985 -280.48410149 450.33566464 -277.9074707 447.67838573 C-277.07789667 446.81158636 -276.24832264 445.94478699 -275.39361 445.05172098 C-274.42651946 444.0758454 -273.45840386 443.10098492 -272.48942566 442.12698364 C-271.42499412 441.03936758 -270.36105319 439.95127119 -269.29753685 438.86276019 C-265.49055417 434.98465034 -261.64568342 431.14492667 -257.80070496 427.30455017 C-256.31421454 425.81618906 -254.82793977 424.32761256 -253.34186077 422.83884066 C-249.27724754 418.76813544 -245.20954123 414.70053362 -241.14129019 410.63346446 C-236.74681776 406.23919668 -232.35521201 401.84206548 -227.96321106 397.44532776 C-219.36696063 388.84078549 -210.76795427 380.23900384 -202.16782975 371.63833407 C-195.17798452 364.64802858 -188.18894076 357.65692272 -181.20045471 350.66525841 C-179.18590557 348.64981169 -177.17135255 346.63436885 -175.15679836 344.61892718 C-174.65592984 344.11783761 -174.15506132 343.61674805 -173.63901497 343.10047395 C-159.56148811 329.01679774 -145.48286261 314.93422056 -131.40203857 300.85384083 C-130.6065757 300.05840132 -130.6065757 300.05840132 -129.79504286 299.24689233 C-127.10744013 296.55937269 -124.41982942 293.87186103 -121.73221695 291.18435112 C-120.93161229 290.38377637 -120.93161229 290.38377637 -120.11483379 289.5670284 C-119.03549165 288.4877267 -117.95614884 287.40842569 -116.87680535 286.32912535 C-100.07499601 269.52792909 -83.27725572 252.72267387 -66.48258972 235.91433716 C-47.59958631 217.01596936 -28.71320487 198.12098622 -9.82205296 179.23076361 C-7.80748924 177.21627453 -5.79293849 175.20177249 -3.77839661 173.18726158 C-3.28238774 172.69126437 -2.78637888 172.19526716 -2.27533945 171.68423974 C5.70007911 163.70885193 13.67228768 155.73026292 21.64338061 147.7505521 C29.65376577 139.73168572 37.66797839 131.7166631 45.68580556 123.70523647 C50.02763595 119.36667388 54.36783882 115.02651553 58.70370102 110.68198776 C62.67422343 106.70361157 66.64934865 102.72989518 70.62816179 98.75981113 C72.06518594 97.32432436 73.50052974 95.88715301 74.93399775 94.44811509 C88.70235514 80.62981647 88.70235514 80.62981647 96.51057434 75.12698364 C96.18057434 73.80698364 95.85057434 72.48698364 95.51057434 71.12698364 C87.04346526 71.03402882 78.57657176 70.96309043 70.10907745 70.91973495 C66.17664479 70.89891938 62.24456295 70.87071357 58.31233215 70.82522583 C54.5127216 70.78155064 50.71344707 70.75780125 46.91360474 70.74747467 C45.46879797 70.7401219 44.0240082 70.72576396 42.5793457 70.70406342 C40.54495974 70.67473844 38.51193675 70.67103932 36.47737122 70.67288208 C35.3226532 70.66399963 34.16793518 70.65511719 32.97822571 70.64596558 C25.26962961 71.71526972 19.99048603 76.05754361 14.67247105 81.45613575 Z M178.63557434 91.57620239 C177.58352878 92.64551638 176.54217373 93.72543132 175.51057434 94.81448364 C174.98979309 95.34493286 174.46901184 95.87538208 173.93244934 96.42190552 C171.61684094 98.80476012 169.45244793 101.20004161 167.38166809 103.80276489 C165.58579859 106.03354225 163.76140719 107.78965072 161.57307434 109.62698364 C158.39809152 112.33993538 155.41831513 115.13112949 152.51057434 118.12698364 C152.18057434 118.45698364 151.85057434 118.78698364 151.51057434 119.12698364 C151.35271404 122.83670074 151.70739306 125.04184424 153.93756104 128.05491638 C162.37145787 137.22962629 171.22934406 145.99018788 180.04573059 154.79495239 C181.85230853 156.60220508 183.6587381 158.4096061 185.46502686 160.21714783 C189.23648148 163.99007062 193.00967432 167.7612429 196.78425598 171.53103638 C201.12882562 175.8701579 205.46977087 180.21288035 209.80886751 184.55747432 C214.01132127 188.76503596 218.21661021 192.96975521 222.42307854 197.1733036 C224.20071625 198.95027713 225.97761944 200.72798579 227.75375557 202.50646019 C230.23936721 204.99462695 232.72818871 207.47953947 235.21784973 209.96365356 C236.30363815 211.05247833 236.30363815 211.05247833 237.41136169 212.16329956 C238.44328896 213.19099709 238.44328896 213.19099709 239.49606323 214.23945618 C240.08169572 214.82471164 240.66732821 215.4099671 241.27070713 216.01295757 C243.13631727 217.77375324 245.03652116 219.43675104 246.98535728 221.10260773 C252.90175553 226.25734225 258.38534025 231.85669664 263.92855835 237.40452576 C265.18008177 238.65346187 266.43181842 239.90218435 267.68374866 241.15071267 C271.10908611 244.56802033 274.53131716 247.98842386 277.95301187 251.40937841 C281.64930384 255.10381289 285.34843969 258.79539814 289.04716492 262.48739624 C297.12612435 270.55280249 305.20133072 278.62195929 313.27571988 286.69194055 C318.31933625 291.73279053 323.36368793 296.77290425 328.4081707 301.81288719 C342.38183525 315.77436518 356.35455711 329.73678511 370.32382298 343.70266438 C371.66353944 345.04205149 371.66353944 345.04205149 373.03032088 346.40849693 C374.37317522 347.75102385 374.37317522 347.75102385 375.74315792 349.12067252 C377.5571487 350.93421984 379.37114102 352.7477656 381.18513489 354.56130981 C382.53482902 355.91067181 382.53482902 355.91067181 383.91178971 357.28729364 C398.4992683 371.87082224 413.09349087 386.44758191 427.69062746 401.02144287 C442.68616473 415.99326241 457.676066 430.97070543 472.66033214 445.95380563 C481.07009036 454.36264756 489.48224475 462.76906077 497.90062141 471.16927528 C505.06661878 478.31986633 512.22744756 485.47558333 519.38161702 492.63800899 C523.0303166 496.29061255 526.68138283 499.94076364 530.3390522 503.58438683 C533.69054705 506.92312881 537.03497844 510.26878403 540.3740369 513.61996224 C541.57991079 514.82779064 542.78829952 516.03311489 543.99951036 517.23559133 C550.56048327 523.75225504 556.54879521 530.26107046 561.51057434 538.12698364 C562.50057434 537.46698364 563.49057434 536.80698364 564.51057434 536.12698364 C564.9781575 533.39768687 564.9781575 533.39768687 564.91462708 530.15188599 C564.92731125 528.89653046 564.93999542 527.64117493 564.95306396 526.34777832 C564.9510114 524.96949093 564.94802243 523.59120467 564.94416809 522.21292114 C564.94872945 520.80004627 564.95403489 519.38717362 564.96005249 517.9743042 C564.9690012 515.00671407 564.96654456 512.03939269 564.95661926 509.07180786 C564.94518501 505.2855512 564.96524498 501.50023488 564.9945364 497.71410179 C565.01297936 494.79193297 565.01258901 491.86998547 565.00689888 488.94777298 C565.00674634 487.55324621 565.01273489 486.15870379 565.02519035 484.76423264 C565.10637132 474.17538951 563.96421209 467.33940737 556.63948059 459.51370239 C555.45829651 458.24985718 555.45829651 458.24985718 554.25325012 456.96047974 C549.31609698 451.85983888 544.336376 446.80515116 539.30818176 441.79421997 C537.4441419 439.93556256 535.58553922 438.0715875 533.72737122 436.20706177 C532.51870746 434.9990586 531.30973365 433.79136555 530.10041809 432.58401489 C529.28600502 431.76656548 529.28600502 431.76656548 528.45513916 430.93260193 C525.76508785 428.25852168 523.03083602 425.70003212 520.13405228 423.25103283 C513.86692463 417.78291272 508.07014491 411.82097896 502.19923401 405.93589783 C500.85070865 404.58780896 499.50196339 403.23994003 498.15301824 401.89227122 C494.45965513 398.20113794 490.76940697 394.5069043 487.07967091 390.81214583 C483.09514451 386.82329323 479.10772056 382.83733897 475.12065125 378.85102844 C468.21650628 371.94740738 461.31419215 365.04196021 454.41312408 358.13526344 C444.43103251 348.14503578 434.4461722 338.15757913 424.46063963 328.17079099 C408.25332204 311.96128559 392.04823384 295.74955386 375.84455872 279.53640747 C360.11591456 263.79858041 344.38622175 248.06180267 328.65510559 232.32644653 C328.17022783 231.84143724 327.68535006 231.35642795 327.18577903 230.85672141 C322.31584122 225.98546492 317.44588199 221.11422984 312.575907 216.24301052 C274.55513692 178.21252256 236.53727599 140.17912766 198.52203822 102.14310962 C197.64305452 101.26365026 197.64305452 101.26365026 196.74631357 100.36642405 C195.67272284 99.29225129 194.59913638 98.21807426 193.52555537 97.14389178 C192.18726872 95.80488206 190.84892385 94.46593053 189.51057434 93.12698364 C188.8183765 92.35222819 188.12617865 91.57747273 187.41300511 90.77923983 C183.92929972 87.75365073 181.88891217 88.80467682 178.63557434 91.57620239 Z M86.49592113 183.88995457 C86.02668328 184.35628554 85.55744542 184.82261652 85.07398823 185.30307874 C83.50912604 186.86066529 81.95145448 188.42524448 80.39367676 189.98991394 C79.25943837 191.12184696 78.12476453 192.25334376 76.98969394 193.38444227 C73.87663766 196.48915285 70.76984592 199.60006655 67.66406047 202.71204817 C64.31187386 206.068759 60.95393881 209.41971082 57.59674072 212.77140808 C51.02364541 219.33560832 44.45597074 225.90520634 37.89022102 232.47675306 C32.55603828 237.81545068 27.21990894 243.15219529 21.88237953 248.48754692 C20.74335856 249.6261082 20.74335856 249.6261082 19.58132705 250.78767071 C18.03880847 252.32954986 16.49628539 253.87142452 14.95375786 255.41329473 C0.48951759 269.87183166 -13.96858538 284.33649322 -28.42460021 298.80325352 C-40.83767538 311.22526962 -53.25599263 323.64202496 -65.67814636 336.05496216 C-80.09742634 350.46354889 -94.51346898 364.87536185 -108.92432946 379.29236978 C-110.45965199 380.82832943 -111.99497872 382.3642849 -113.53030968 383.90023613 C-114.28576525 384.65600026 -115.04122083 385.41176438 -115.819569 386.19043045 C-121.15233508 391.52492591 -126.48742366 396.85709185 -131.82340431 402.18837166 C-138.32067542 408.68004467 -144.81439373 415.17524629 -151.30352626 421.67505509 C-154.61654166 424.99334084 -157.93116208 428.30998119 -161.25010681 431.62233734 C-164.28460223 434.65089964 -167.31448961 437.68399191 -170.34067323 440.72085886 C-171.43969827 441.82212911 -172.54043534 442.92169384 -173.64299313 444.01942719 C-175.13462463 445.50502836 -176.62003781 446.99657604 -178.10397816 448.48985386 C-178.93269296 449.31889337 -179.76140777 450.14793288 -180.61523515 451.00209481 C-182.68872702 453.07426018 -182.68872702 453.07426018 -183.48942566 456.12698364 C-182.40987514 457.9241496 -182.40987514 457.9241496 -180.68473816 459.67776489 C-180.03537292 460.38239868 -179.38600769 461.08703247 -178.71696472 461.8130188 C-174.65271636 466.03495501 -170.52815738 470.19072866 -166.36442566 474.31448364 C-165.04378113 475.6283606 -165.04378113 475.6283606 -163.69645691 476.96878052 C-162.01613099 478.64023594 -160.32993289 480.30581652 -158.6368866 481.96438599 C-156.48942566 484.12698364 -156.48942566 484.12698364 -155.00602722 485.88723755 C-153.73503765 487.48757496 -153.73503765 487.48757496 -151.48942566 489.12698364 C-145.86427275 488.9432992 -143.23834014 487.6253753 -139.30487251 483.68630409 C-138.82941569 483.21836953 -138.35395886 482.75043496 -137.86409426 482.26832056 C-136.27431987 480.69643534 -134.70683526 479.10406462 -133.13838196 477.51092529 C-131.99175801 476.36835022 -130.84382073 475.22709188 -129.69468677 474.08704126 C-126.54058836 470.95025132 -123.40551618 467.79502502 -120.2732172 464.63648701 C-116.89214488 461.23363473 -113.49380646 457.84810354 -110.0975647 454.46040344 C-103.44756944 447.82168126 -96.81364953 441.16711432 -90.18491144 434.50717427 C-82.46970957 426.756926 -74.73844268 419.0227877 -67.00635754 411.28938918 C-53.21511067 397.49476534 -39.43804894 383.68606155 -25.66911316 369.86917114 C-12.29817041 356.45169356 1.08184789 343.04335824 14.4724884 329.64553833 C15.70997836 328.40738007 15.70997836 328.40738007 16.97246812 327.14420851 C18.63435998 325.48143147 20.2962524 323.818655 21.95814539 322.1558791 C23.18774378 320.92562201 23.18774378 320.92562201 24.44218254 319.67051125 C25.25980467 318.85245714 26.07742681 318.03440304 26.91982537 317.19155941 C39.6677962 304.43619264 52.4081005 291.67317015 65.14734455 278.90908844 C69.76993461 274.27761943 74.39352712 269.64715388 79.01781182 265.01737691 C86.35061592 257.67571927 93.68007331 250.33075478 101.00269751 242.97894241 C104.3501983 239.61820221 107.6992459 236.2590441 111.05258751 232.90413094 C114.11853548 229.83661468 117.17984373 226.76454806 120.23740579 223.68867366 C121.34784893 222.57319426 122.45999638 221.45940852 123.57395612 220.34744091 C125.080965 218.84260803 126.58175787 217.33184311 128.08106804 215.81934547 C129.33699707 214.55967695 129.33699707 214.55967695 130.61829841 213.27456057 C132.70814889 211.18411317 132.70814889 211.18411317 133.51057434 208.12698364 C132.71884827 207.33525757 131.92712219 206.54353149 131.11140442 205.72781372 C123.92650859 198.54291789 116.74161275 191.35802205 109.55671692 184.17312622 C109.04235077 183.659888 108.52798462 183.14664978 107.99803162 182.61785889 C106.56795138 181.18449253 105.14971457 179.73933953 103.73200989 178.29373169 C101.70041357 176.11851542 101.70041357 176.11851542 99.57307434 175.06448364 C94.37456464 175.22201424 89.97560988 180.41162789 86.49592113 183.88995457 Z M178.06135559 265.48635864 C175.79491973 267.88409935 173.64151307 270.36850659 171.49885559 272.87698364 C166.75177824 278.24892186 161.74783374 283.57619793 155.94807434 287.81448364 C153.28604312 290.01509191 153.28604312 290.01509191 152.19807434 293.43948364 C152.94796378 302.28817906 164.25907865 310.0164726 170.28302002 316.02641296 C171.3683934 317.11294028 172.45354898 318.1996852 173.53850704 319.28662723 C176.50362093 322.25589703 179.47182285 325.22206262 182.44056761 328.18770158 C185.6482883 331.39315312 188.85312195 334.60148897 192.05833435 337.80944824 C198.33115046 344.08670482 204.60665959 350.36126237 210.88314682 356.63484807 C215.98534071 361.73478117 221.08655479 366.83569242 226.18707466 371.93729973 C227.27706735 373.02752227 227.27706735 373.02752227 228.3890801 374.13976951 C229.86539674 375.61640588 231.34171114 377.0930445 232.81802333 378.56968533 C246.65295622 392.40746796 260.49094935 406.24218704 274.32999486 420.0758565 C286.19767017 431.93906423 298.0627212 443.80489133 309.92585754 455.67263794 C323.71092323 469.4630583 337.49761379 483.25185089 351.28689152 497.03805965 C352.75801586 498.50886545 354.22913811 499.97967333 355.70025826 501.45048332 C356.42402864 502.17409944 357.14779903 502.89771555 357.89350186 503.64325942 C362.98731168 508.73620677 368.07996214 513.83031162 373.17216301 518.92486763 C379.38009593 525.13560866 385.58981461 531.34455762 391.80181079 537.55123467 C394.96959715 540.71639768 398.13658751 543.88234615 401.30140495 547.05047798 C404.2014694 549.95353355 407.10385315 552.85424959 410.00806273 555.7531582 C411.05529091 556.79927419 412.10168763 557.84622336 413.14714139 558.89411265 C418.25777345 564.01573148 423.39107327 569.04178804 428.89606881 573.74047887 C431.09765745 575.63115877 433.16534004 577.64018322 435.22663879 579.68191528 C436.47251518 580.91338036 436.47251518 580.91338036 437.74356079 582.16972351 C439.04555672 583.46534462 439.04555672 583.46534462 440.37385559 584.78713989 C441.28765488 585.69523911 442.20145416 586.60333832 443.14294434 587.53895569 C445.06174251 589.44733925 446.97827668 591.35796637 448.89363098 593.26980591 C451.33901626 595.70967459 453.79357376 598.14009687 456.25031757 600.56852055 C458.61058109 602.90563737 460.96021596 605.25334515 463.31135559 607.59963989 C464.18947403 608.46541153 465.06759247 609.33118317 465.97232056 610.22319031 C474.00957248 618.29004446 474.00957248 618.29004446 475.51057434 623.12698364 C475.4661021 628.39715616 473.49836379 630.80522145 469.92073059 634.52151489 C469.43822342 635.02802078 468.95571625 635.53452667 468.45858765 636.05638123 C466.82383757 637.76140282 465.16930223 639.44529315 463.51057434 641.12698364 C462.91283203 641.73781799 462.31508972 642.34865234 461.69923401 642.97799683 C457.81619305 646.94279134 453.9035527 650.87682474 449.97322083 654.79470825 C447.91611294 656.84636027 445.86452888 658.90343118 443.81330872 660.96096802 C442.50308313 662.27053433 441.19254819 663.57979125 439.88166809 664.88870239 C439.27028488 665.50210983 438.65890167 666.11551727 438.0289917 666.74751282 C433.7406145 671.01196356 433.7406145 671.01196356 431.51057434 672.12698364 C431.51057434 672.78698364 431.51057434 673.44698364 431.51057434 674.12698364 C430.69125804 674.45874069 430.69125804 674.45874069 429.85538989 674.7971999 C426.76848073 676.54783722 424.46759986 678.90094717 421.99352551 681.40352345 C421.4456626 681.94967785 420.8977997 682.49583226 420.33333489 683.0585368 C418.48887677 684.89969221 416.65168094 686.74792909 414.81433105 688.59617615 C413.48398743 689.92707954 412.15320118 691.25754061 410.82200938 692.58759564 C407.15735327 696.25165919 403.49897183 699.92193298 399.8415395 703.59320533 C395.89892848 707.54853899 391.95053581 711.49809332 388.00279236 715.44830322 C381.15983344 722.29704212 374.32044011 729.1493251 367.48332787 736.00390053 C357.59133141 745.92097689 347.6928866 755.83159692 337.79264937 765.74044576 C321.72254331 781.82469548 305.6561638 797.91266033 289.59284973 814.00369263 C289.1120624 814.48530725 288.63127507 814.96692187 288.13591842 815.46313088 C280.33491986 823.27756127 272.53411189 831.09218194 264.73333168 838.90683031 C257.42878147 846.22436346 250.12416347 853.54182891 242.81941223 860.85916138 C242.33933972 861.34006307 241.85926721 861.82096476 241.36464704 862.31643923 C224.88147631 878.82802832 208.39437367 895.3356846 191.90415698 911.84023732 C182.02844893 921.72491292 172.15631748 931.61313523 162.28874824 941.50593569 C155.52717489 948.28435125 148.76207819 955.05923658 141.99418863 961.83134571 C138.08802279 965.74020364 134.18354531 969.65071128 130.28343773 973.5656147 C126.71311532 977.14943057 123.13821294 980.72861055 119.5596169 984.30416431 C118.26580025 985.59852395 116.97368469 986.89458668 115.68344995 988.19251684 C113.9286203 989.95732567 112.16769494 991.71582514 110.4051466 993.47292042 C109.65713996 994.22966564 109.65713996 994.22966564 108.89402208 995.00169864 C105.35229818 998.5138985 101.61019667 1001.31680168 97.51057434 1004.12698364 C97.84057434 1005.77698364 98.17057434 1007.42698364 98.51057434 1009.12698364 C106.84729874 1009.21994651 115.18380406 1009.29088086 123.5209198 1009.33423233 C127.39282124 1009.3550462 131.26436626 1009.38324874 135.13606262 1009.42874146 C138.87731902 1009.47242294 142.61823408 1009.49616731 146.35972595 1009.50649261 C147.78220487 1009.51384428 149.20466657 1009.52820003 150.6269989 1009.54990387 C161.76158761 1009.84397753 161.76158761 1009.84397753 171.51057434 1005.12698364 C173.18569342 1003.46881247 174.85079004 1001.80050438 176.51057434 1000.12698364 C177.40650214 999.23067612 178.30242995 998.33436859 179.22550708 997.41090024 C180.22566604 996.41020666 181.22581813 995.40950623 182.22596455 994.40880013 C183.38513143 993.24900994 184.54429851 992.08921995 185.70346576 990.92943013 C186.31966711 990.31289327 186.93586846 989.69635641 187.57074258 989.06113662 C225.66988342 950.94136215 263.77180547 912.82436877 301.87642341 874.71006925 C306.77931549 869.80593 311.68218285 864.90176605 316.58503723 859.99758911 C317.07288513 859.50961045 317.56073303 859.02163179 318.0633642 858.5188659 C333.88398782 842.69397877 349.70298525 826.86746722 365.52114423 811.04011653 C382.25167888 794.29987771 398.98406727 777.56149414 415.71840876 760.82506073 C425.73699712 750.80510025 435.7541021 740.78366153 445.76931467 730.76032685 C452.63243983 723.89191902 459.49740415 717.02535302 466.36382083 710.16023578 C470.32551566 706.19918183 474.28639208 702.23731843 478.24508667 698.27326584 C481.8706005 694.64288076 485.49842373 691.01482009 489.12808117 687.38857792 C490.43916938 686.07791171 491.74941503 684.76640199 493.05872021 683.45395459 C499.37234872 677.12605847 505.68704135 670.91103066 512.51057434 665.12698364 C513.82256465 663.89492833 515.12347325 662.6506473 516.40046692 661.38235474 C517.05086441 660.7383371 517.7012619 660.09431946 518.37136841 659.43078613 C519.04250168 658.76076569 519.71363495 658.09074524 520.40510559 657.40042114 C521.11914047 656.68971466 521.83317535 655.97900818 522.56884766 655.24676514 C524.06333935 653.75729707 525.55651506 652.26650749 527.04841614 650.77444458 C529.32922717 648.49583676 531.61794357 646.22537024 533.90705872 643.95510864 C535.36522982 642.49986911 536.8229289 641.04415641 538.28010559 639.58792114 C539.30198723 638.57681778 539.30198723 638.57681778 540.34451294 637.54528809 C545.13365405 632.84627364 545.13365405 632.84627364 548.51057434 627.12698364 C548.32568003 621.99459942 545.25892622 619.31420335 541.79765034 615.90790176 C541.19216792 615.29630599 540.5866855 614.68471021 539.96285513 614.05458122 C537.91853832 611.99458497 535.86018462 609.94920982 533.80166626 607.90341187 C532.32342729 606.41985117 530.84606056 604.93542092 529.36949557 603.45019412 C525.29918872 599.36118379 521.21641652 595.28481935 517.13152969 591.21038127 C512.73227567 586.81809739 508.34450538 582.41436769 503.95524597 578.01210022 C495.84834173 569.88476837 487.7322747 561.76667981 479.61132105 553.65339176 C472.10936248 546.15850004 464.61091349 538.66012018 457.11598778 531.1581955 C456.11145588 530.15275227 455.1069237 529.14730933 454.10239124 528.14186667 C452.58874517 526.6268375 451.07510309 525.11180433 449.56147145 523.59676074 C435.48504579 509.50735011 421.40468367 495.42188314 407.31595325 481.34477615 C406.78462375 480.81388462 406.25329424 480.28299308 405.70586384 479.73601392 C401.39078888 475.42454596 397.07560012 471.11319189 392.76040409 466.8018451 C375.92571286 449.98200306 359.10287768 433.15038611 342.28962708 416.30911255 C323.40850546 397.39658179 304.51920069 378.49228224 285.61726588 359.60055137 C283.60290268 357.58722498 281.58856427 355.57387379 279.57423973 353.56050873 C279.07823975 353.06475763 278.58223976 352.56900653 278.07120948 352.05823267 C270.57539689 344.56586396 263.08598962 337.06713227 255.59972572 329.56522369 C247.08859874 321.03635146 238.56852368 312.51655843 230.03711436 304.00796399 C225.68177716 299.663805 221.3306038 295.31567682 216.99012184 290.95667076 C213.02025483 286.97007935 209.03912741 282.99511398 205.04852065 279.02928635 C203.60330389 277.58897971 202.16233499 276.14439615 200.7259768 274.69525507 C198.77948596 272.73269038 196.81837827 270.7860234 194.85270405 268.84270096 C194.29279196 268.2707972 193.73287988 267.69889343 193.15600076 267.10965925 C188.03291409 262.10558197 183.65757909 260.22272724 178.06135559 265.48635864 Z M92.88557434 350.87698364 C91.58813293 352.12028442 91.58813293 352.12028442 90.26448059 353.38870239 C88.901297 354.74415161 88.901297 354.74415161 87.51057434 356.12698364 C86.1009845 357.49790161 86.1009845 357.49790161 84.66291809 358.89651489 C80.85288596 362.64365791 77.12131285 366.39201382 73.66717529 370.47059631 C68.16782619 376.76844257 62.18075864 382.59628119 56.26667786 388.50027466 C54.9286823 389.83962716 53.59089915 391.17919189 52.25331116 392.51895142 C48.63786585 396.13893613 45.0192879 399.75577385 41.39998364 403.37189984 C37.60257639 407.16676541 33.8076209 410.96408155 30.01226807 414.76100159 C23.63972139 421.13536469 17.2650758 427.50762308 10.88923645 433.87869263 C3.53070789 441.23177959 -3.82421143 448.58846194 -11.17726654 455.94702202 C-17.50429717 462.2785988 -23.83328471 468.60821452 -30.16389519 474.936212 C-33.93886482 478.70962713 -37.71316631 482.48370388 -41.48570061 486.25955391 C-45.03341107 489.81016493 -48.58358169 493.35829801 -52.13562012 496.90457916 C-53.43446772 498.20211086 -54.73247691 499.50048248 -56.02955818 500.79977989 C-67.88559252 512.67419323 -67.88559252 512.67419323 -73.95366192 517.8211565 C-77.96599848 521.23276067 -81.63121291 525.04195855 -85.36442566 528.75198364 C-86.21778503 529.58471802 -87.07114441 530.41745239 -87.95036316 531.27542114 C-88.76505066 532.08495239 -89.57973816 532.89448364 -90.41911316 533.72854614 C-91.15371765 534.45380493 -91.88832214 535.17906372 -92.64518738 535.92630005 C-94.5845505 538.24049375 -95.53526152 540.27948791 -96.48942566 543.12698364 C-91.78113599 548.63162743 -86.8885094 553.87970768 -81.77186584 559.00517273 C-81.02620617 559.75592022 -80.2805465 560.50666772 -79.51229107 561.28016514 C-77.03289829 563.7751551 -74.55002309 566.26664827 -72.06706238 568.75808716 C-70.28089391 570.55380335 -68.49489781 572.349691 -66.70906067 574.14573669 C-61.37009266 579.51325358 -56.026788 584.87643572 -50.68201655 590.23817316 C-49.17206201 591.75293166 -47.66219669 593.26777903 -46.15234995 594.78264499 C-36.76597307 604.19996259 -27.37745723 613.61514444 -17.98400688 623.02540684 C-15.81504779 625.19831493 -13.64611578 627.37125005 -11.47721863 629.54421997 C-10.9381968 630.08425016 -10.39917498 630.62428034 -9.84381916 631.18067508 C-1.08876156 639.95278436 7.65416462 648.73688501 16.39234318 657.52580477 C25.370676 666.55584332 34.36023669 675.57458167 43.36082637 684.58243698 C48.41163325 689.63791069 53.45725683 694.69833687 58.49022293 699.77157784 C63.21599904 704.53512773 67.9566493 709.28333887 72.70802689 714.02137566 C74.45276736 715.76617035 76.19234001 717.51614967 77.92642975 719.27153015 C80.28640353 721.65893279 82.66393072 724.0273134 85.04698181 726.39164734 C85.73579536 727.09725581 86.4246089 727.80286429 87.13429558 728.52985483 C88.0937201 729.47043487 88.0937201 729.47043487 89.07252693 730.43001652 C89.61970662 730.97893246 90.16688631 731.5278484 90.73064721 732.09339815 C92.52751464 733.35472421 92.52751464 733.35472421 95.00074208 732.98879403 C97.75451062 732.04322234 99.0579914 731.08062928 101.10593796 729.03498459 C101.78060506 728.37074848 102.45527215 727.70651237 103.15038371 727.02214789 C103.87830851 726.28530021 104.60623331 725.54845253 105.35621643 724.78927612 C106.13974149 724.01199103 106.92326655 723.23470593 107.73053479 722.43386674 C110.36181945 719.81857704 112.97852854 717.18917216 115.59553528 714.55960083 C117.47557573 712.68497857 119.35637898 710.81115117 121.23812866 708.93824768 C125.82170888 704.3724665 130.39439402 699.79592139 134.9632825 695.21544328 C138.67625875 691.49343843 142.3931148 687.77535017 146.11278534 684.06003571 C146.64191316 683.53152081 147.17104099 683.00300592 147.71620299 682.45847543 C148.79108764 681.38486966 149.86598127 680.31127288 150.94088379 679.23768499 C161.02297926 669.16699937 171.09277138 659.08408313 181.15841237 648.99695495 C189.79800801 640.33948796 198.44803764 631.69256233 207.10578918 623.05325317 C217.15649076 613.02395114 227.2006797 602.98820026 237.23454309 592.94205022 C238.30422912 591.87108997 239.37392353 590.80013808 240.4436264 589.72919464 C240.96995581 589.20224813 241.49628522 588.67530162 242.03856401 588.13238703 C245.75044103 584.41705436 249.46694354 580.70638758 253.18524933 576.99748993 C257.71567445 572.47827598 262.23891824 567.95201951 266.75306907 563.41654721 C269.05704991 561.10204406 271.36518126 558.79197119 273.67995644 556.48825645 C276.18693627 553.99215597 278.68134861 551.48414559 281.17286682 548.97262573 C282.27813835 547.88073854 282.27813835 547.88073854 283.40573859 546.76679301 C284.0699747 546.09212591 284.73421081 545.41745882 285.41857529 544.72234726 C285.99569787 544.14457527 286.57282045 543.56680328 287.16743159 542.97152305 C288.8730943 540.62913459 289.37042948 539.02111959 289.51057434 536.12698364 C288.39005002 534.06584052 288.39005002 534.06584052 286.55067635 532.30128384 C285.89846808 531.61184401 285.24625981 530.92240419 284.57428765 530.21207225 C283.55274956 529.17995339 283.55274956 529.17995339 282.51057434 528.12698364 C281.90574777 527.49750985 281.30092121 526.86803606 280.67776656 526.21948731 C278.76033755 524.23953423 276.8181423 522.28684943 274.86894226 520.33818054 C274.13144969 519.59701128 273.39395712 518.85584203 272.63411629 518.09221309 C270.18236669 515.62952158 267.7271179 513.17035048 265.27180481 510.71121216 C263.50532492 508.93846103 261.73903343 507.16552216 259.97291565 505.39241028 C254.69300847 500.0933657 249.40887051 494.79855751 244.12384862 489.50461546 C241.6317201 487.00809134 239.14007572 484.51108412 236.64836502 482.01414299 C228.36343285 473.71222342 220.07725681 465.41154835 211.78745842 457.11448765 C209.6425826 454.9677022 207.49771216 452.82091137 205.3528595 450.67410278 C204.8198189 450.14057845 204.2867783 449.60705411 203.73758496 449.05736237 C195.08231966 440.39377743 186.43561908 431.72169638 177.79241632 423.04607893 C168.90983608 414.13045863 160.01977262 405.22235654 151.1222564 396.32164139 C146.12999999 391.3272189 141.1410933 386.3295473 136.16053391 381.32345772 C131.48286562 376.62186533 126.79512385 371.93049545 122.10031891 367.2460041 C120.37669078 365.52287356 118.65649984 363.79629714 116.93996811 362.06609726 C114.60182563 359.71037713 112.25177729 357.36722504 109.89823914 355.02690125 C108.87669166 353.9888999 108.87669166 353.9888999 107.83450687 352.92992884 C104.20521481 349.34643492 104.20521481 349.34643492 99.6919117 347.10296535 C96.39612408 347.13925464 95.21624682 348.61646519 92.88557434 350.87698364 Z M-371.48942566 543.12698364 C-371.58254376 551.16839692 -371.65340049 559.20958091 -371.69667435 567.2514019 C-371.7174549 570.98649155 -371.74559489 574.72120944 -371.79118347 578.45608521 C-371.83498597 582.06767499 -371.85863424 585.67890964 -371.86893463 589.29074478 C-371.87626494 590.66133329 -371.89057764 592.0319047 -371.91234589 593.40233994 C-371.94183258 595.33753877 -371.94306335 597.2731032 -371.94352722 599.20852661 C-371.95240967 600.30550873 -371.96129211 601.40249084 -371.97044373 602.53271484 C-370.23287889 615.51616706 -361.78253292 622.67441417 -352.88153076 631.47659302 C-351.34181434 633.02107658 -349.80341273 634.56687183 -348.26621288 636.11386013 C-344.04553034 640.35375972 -339.80637382 644.5747538 -335.56392324 648.79285693 C-330.98929691 653.34773361 -326.43200328 657.91989524 -321.87251282 662.48991394 C-313.97261239 670.40425396 -306.06069231 678.30644765 -298.14125252 686.20123291 C-289.83480857 694.48182308 -281.53396679 702.76795842 -273.24072075 711.06176758 C-272.4665606 711.83596213 -272.4665606 711.83596213 -271.67676085 712.62579698 C-269.58172942 714.72095114 -267.48673505 716.81614235 -265.39179119 718.91138408 C-245.74652074 738.55937176 -226.08502498 758.1910473 -206.41531798 777.8145683 C-188.93591767 795.2530768 -171.46764854 812.70265483 -154.00968933 830.16262817 C-152.8882031 831.28423563 -151.7667168 832.40584302 -150.64523042 833.52745032 C-150.09079121 834.08195058 -149.536352 834.63645084 -148.96511161 835.20775414 C-146.17419601 837.99897212 -143.38326511 840.79017477 -140.59231663 843.58135986 C-140.04171779 844.13200884 -139.49111895 844.68265782 -138.9238353 845.24999313 C-124.33711699 859.83780649 -109.74305002 874.41826346 -95.14647907 888.99621773 C-94.62739841 889.51463757 -94.10831776 890.03305741 -93.57350738 890.56718694 C-91.48613954 892.65189009 -89.39877145 894.736593 -87.31136448 896.82125698 C-80.04559424 904.07754387 -72.78230628 911.33630696 -65.52061315 918.59667384 C-56.16589948 927.9495976 -46.80595971 937.29724107 -37.43754763 946.63644499 C-32.91883766 951.14127897 -28.40254389 955.64846638 -23.8926487 960.16212654 C-19.76822032 964.28983116 -15.63697747 968.41058229 -11.50006043 972.52576923 C-10.00085651 974.01951716 -8.50419374 975.51582053 -7.01027615 977.01485538 C-4.98657705 979.04472025 -2.95396937 981.06521663 -0.91877079 983.08354187 C-0.3346284 983.67385022 0.24951399 984.26415856 0.85135767 984.87235504 C3.83353531 987.80921938 6.36633914 990.17265918 10.51057434 991.12698364 C15.09725973 988.77989073 18.16191531 985.5456738 21.51057434 981.68948364 C26.31822664 976.2312037 31.49345242 971.32824222 37.00276184 966.58035278 C39.49575446 964.3621368 41.25665629 962.68059408 42.65901184 959.62307739 C42.2828488 953.29759882 35.91335234 948.24711554 31.67049313 944.03522015 C30.97960845 943.34142859 30.28872377 942.64763703 29.57690319 941.93282148 C27.25547312 939.60407969 24.92697254 937.28253985 22.59844971 934.96089172 C20.9179177 933.27805577 19.237822 931.594784 17.55812603 929.91111356 C13.90251559 926.24888552 10.2438039 922.58978555 6.58233452 918.93341637 C1.13777877 913.49642397 -4.30105036 908.05372987 -9.73876685 902.60989838 C-19.44972778 892.88840372 -29.1664069 883.17264038 -38.88552322 873.45929984 C-47.38893666 864.96091503 -55.89049189 856.46067682 -64.39019585 847.95858192 C-64.95372865 847.39489635 -65.51726146 846.83121077 -66.09787102 846.25044381 C-68.38532818 843.96236399 -70.67277828 841.6742771 -72.96021673 839.38617857 C-94.42024452 817.92003196 -115.88610229 796.45972372 -137.35457038 775.00201871 C-156.43917499 755.92690929 -175.51859714 736.84663076 -194.59367371 717.76199341 C-216.01637159 696.32859401 -237.44228699 674.89841953 -258.87342876 653.47346288 C-261.15644929 651.19108381 -263.43946194 648.90869684 -265.72247124 646.62630653 C-266.5657022 645.7833128 -266.5657022 645.7833128 -267.42596813 644.9232889 C-275.92594369 636.4255911 -284.42344343 627.92542283 -292.91975594 619.42406273 C-302.57525255 609.76285852 -312.23429312 600.1052135 -321.89807934 590.45230081 C-327.31068087 585.04558815 -332.72049329 579.63611933 -338.12638756 574.22270024 C-342.15420657 570.18989178 -346.18719289 566.162285 -350.22228348 562.13675348 C-351.86056359 560.50072092 -353.49713219 558.86297248 -355.13187749 557.22340789 C-357.34176312 555.00750416 -359.55762082 552.79775617 -361.77518559 550.58954144 C-362.41912975 549.94091494 -363.06307391 549.29228844 -363.72653154 548.6240066 C-364.31564932 548.03989586 -364.9047671 547.45578511 -365.51173693 546.85397404 C-366.01824694 546.34759955 -366.52475695 545.84122506 -367.04661575 545.31950588 C-368.59970533 543.88986623 -368.59970533 543.88986623 -371.48942566 543.12698364 Z M337.13557434 592.56448364 C336.23065247 593.41139771 336.23065247 593.41139771 335.30744934 594.27542114 C332.98238334 596.67125002 330.81960132 599.18001631 328.65510559 601.72073364 C325.89649131 604.81600941 323.00114883 607.7551077 320.07307434 610.68948364 C319.28489319 611.48431152 319.28489319 611.48431152 318.48078918 612.29519653 C315.67499943 615.09108553 312.80505749 617.76154967 309.79768372 620.33987427 C305.53954215 624.05211354 301.52533592 627.96754778 297.53791809 631.96682739 C296.44780174 633.05550865 296.44780174 633.05550865 295.33566284 634.16618347 C293.81095138 635.6902192 292.28748284 637.21549934 290.76521301 638.74197388 C288.45423543 641.05830827 286.13796663 643.36925442 283.82112122 645.67971802 C282.33056614 647.17093398 280.84032134 648.66246017 279.35041809 650.15432739 C278.66793503 650.83478622 277.98545197 651.51524506 277.2822876 652.21632385 C276.62793228 652.87383133 275.97357697 653.53133881 275.2993927 654.20877075 C274.73506027 654.77389877 274.17072784 655.33902679 273.58929443 655.92127991 C271.80149019 657.81829649 270.10439211 659.75455084 268.40644836 661.73110962 C263.95750087 666.83793395 259.18042626 671.59700987 254.38777161 676.37918091 C253.38474768 677.3835629 252.38193595 678.38815684 251.37931824 679.39294434 C248.67705947 682.09972915 245.97168667 684.80338069 243.26557279 687.5063107 C240.42108733 690.34824745 237.5790618 693.19264258 234.7366333 696.03663635 C229.96475255 700.8103315 225.19077856 705.58192565 220.41560364 710.35232544 C214.911148 715.85133987 209.41030382 721.35394723 203.91132122 726.85843426 C199.17239054 731.60191688 194.43149645 736.34343055 189.68898433 741.08333248 C186.86416893 743.90659654 184.04001517 746.73051356 181.21763802 749.55621529 C178.56293481 752.21382754 175.90575828 754.86894279 173.2467308 757.52222824 C171.81773039 758.94929644 170.39116136 760.37879804 168.96469116 761.80839539 C164.59493207 766.16395114 160.16570282 770.35841122 155.48766422 774.37951565 C151.66768476 777.75583754 148.08996765 781.3827409 144.48005676 784.98049927 C143.61563965 785.83834518 142.75122253 786.6961911 141.86061096 787.58003235 C139.02619567 790.39487532 136.19568312 793.21359297 133.36604309 796.03323364 C132.38545082 797.00977129 131.40482736 797.98627764 130.42417336 798.9627533 C125.82178102 803.54616212 121.22175713 808.13193162 116.62466162 812.72065306 C111.33607896 817.9994386 106.03929262 823.26981242 100.73549956 828.53331423 C96.6204233 832.61820595 92.51307667 836.71076759 88.41141015 840.80912352 C85.96769062 843.25049871 83.52081374 845.68849246 81.06567955 848.11839294 C78.33070535 850.82569838 75.61181614 853.54881408 72.89411926 856.27346802 C72.08525772 857.0695195 71.27639618 857.86557098 70.44302368 858.68574524 C66.27262547 862.89520146 63.13847065 866.35976218 61.51057434 872.12698364 C63.76747891 876.97196899 67.5512444 880.2651712 71.51057434 883.75198364 C78.07167652 889.66231288 84.31062909 895.84184831 90.51057434 902.12698364 C91.84279517 903.46142855 93.17567146 904.79522171 94.51057434 906.12698364 C107.31165909 900.65543857 118.70371955 885.07575607 128.37702942 875.3899231 C130.15046417 873.61784578 131.92411106 871.84598075 133.69795227 870.0743103 C137.98790017 865.78842573 142.27552914 861.50023439 146.56198833 857.2108616 C150.04759521 853.72298468 153.53419107 850.2360992 157.02147484 846.74989891 C157.52016828 846.2513587 158.01886173 845.75281849 158.5326671 845.23917099 C159.54610335 844.2260545 160.55954183 843.21294023 161.57298251 842.19982817 C171.043393 832.73225945 180.51075312 823.26164524 189.9770483 813.78996202 C198.08568906 805.67684888 206.19695562 797.56636869 214.31013489 789.45779419 C223.75705023 780.01623817 233.20233143 770.57305223 242.64503402 761.1272828 C243.65293815 760.11906014 244.66084436 759.11083956 245.66875267 758.10262108 C246.16453179 757.60668768 246.66031091 757.11075428 247.17111364 756.5997926 C250.65208312 753.11796246 254.13420586 749.63728827 257.61678505 746.15706825 C262.3067882 741.47017278 266.99411552 736.78061286 271.67967987 732.08927917 C273.39647828 730.37116163 275.11412245 728.65388871 276.83268547 726.93753624 C279.18347766 724.58948868 281.53114883 722.23836295 283.87808228 719.88645935 C284.55376859 719.21300376 285.2294549 718.53954816 285.92561656 717.84568483 C289.78506983 713.97043254 293.45946583 709.98492295 297.02611709 705.83812737 C298.85830451 703.72615277 300.78282293 701.7277469 302.75837708 699.74978638 C303.51283615 698.99217514 304.26729523 698.2345639 305.0446167 697.45399475 C305.83646866 696.66416702 306.62832062 695.87433929 307.44416809 695.06057739 C308.28093582 694.22285294 309.11770355 693.38512848 309.97982788 692.52201843 C311.73925538 690.76191429 313.49993087 689.00305687 315.26179504 687.24539185 C317.94026845 684.57227392 320.61336307 681.89386113 323.28596497 679.21487427 C325.00504549 677.49645461 326.72443624 675.77834522 328.44416809 674.06057739 C329.23399582 673.26872543 330.02382355 672.47687347 330.83758545 671.661026 C334.97581311 667.54001608 339.19962116 663.5987845 343.62356567 659.78715515 C346.65346726 657.12147779 349.49894157 654.28163271 352.34651184 651.42385864 C352.95193817 650.81938904 353.5573645 650.21491943 354.18113708 649.59213257 C355.44435776 648.3295857 356.70634357 647.06580214 357.96711731 645.80081177 C359.8984339 643.86408808 361.83509888 641.9328264 363.77229309 640.00198364 C365.00568717 638.76792955 366.23877145 637.53356572 367.47151184 636.29885864 C368.04855865 635.72383606 368.62560547 635.14881348 369.22013855 634.55636597 C374.0267706 630.02697105 374.0267706 630.02697105 375.62385559 623.91604614 C374.04313957 618.53606532 370.85650328 616.09823488 366.69807434 612.50198364 C365.14097001 611.10638225 363.58761312 609.70658913 362.03791809 608.30276489 C361.26947571 607.60747681 360.50103333 606.91218872 359.70930481 606.1958313 C356.00121797 602.70678757 352.63814419 598.91308469 349.35505676 595.02493286 C347.32801922 592.70778651 345.79348857 591.23508222 342.89338684 590.12698364 C340.0036207 590.12698364 339.21880095 590.60828304 337.13557434 592.56448364 Z " fill="#0FB5B7" transform="translate(603.4894256591797,159.87301635742188)"/>
</svg>
